# xmcd
#
# Track frame offsets:
#	150
#	27821
#	61345
#	72219
#	92199
#	113850
#	126250
#	147755
#	154863
#	186907
#	189824
#	197711
#	218226
#	224508
#	233800
#	263622
#	275296
#	280289
#	297755
#	302522
#	335757
#
# Disc length: 4606 seconds
#
# Revision: 0
# Processed by: cddbd v1.5.2PL0 Copyright (c) Steve Scherf et al.
# Submitted via: EasyCDDAExtractor 16.0.6.1
#
DISCID=4011fc15
DTITLE=Χορ. Αρμονία Νικολ. Κυριακού - Θεία Λειτουργία Αγ. Ιωάννου Χρυσοστόμου
DYEAR=2012
DGENRE=Βυζ. Εκκλησιαστική
TTITLE0=Ειρηνικά
TTITLE1=Ταις πρεσβείαις-Σώσον ημάς-Ο μονογενής
TTITLE2=Μικρά Είσοδος-Απολυτίκιο Αναστάσεως
TTITLE3=Άγιος ο Θεός
TTITLE4=Απόστολος
TTITLE5=Αλληλουάριο-Ευχή Ευαγγελίου
TTITLE6=Ευαγγέλιο
TTITLE7=Χερουβικός Ύμνος
TTITLE8=Μεγάλη Είσοδος-Ταις αγγελικαίς
TTITLE9=Πληρωτικά
TTITLE10=Πατέρα, Υιόν-Σύμβολο της Πίστεως
TTITLE11=Στώμεν καλώς-Αγγελικός ύμνος (Άγιος Κύριος Σαββαώθ)
TTITLE12=Τα Σα εκ των Σω-Σε υμνούμεν
TTITLE13=Της Παναγίας Αχράντου-Άξιον Εστί
TTITLE14=Και δώσ' ημίν-Δεήσεις προ της Κυριακής προσευχής
TTITLE15=Κυριακή Προσευχή (Πάτερ ημών)
TTITLE16=Πρόσχωμεν-Εις Άγιος
TTITLE17=Κοινωνικό, Εξομολογείσθαι τω Κυρίω
TTITLE18=Σώσον Κύριε-Είδομεν το φως
TTITLE19=Ευλογητός ο Θεός-Απόλυσις
TTITLE20=Τροπάριο της Αναστάσεως
EXTD=
EXTT0=
EXTT1=
EXTT2=
EXTT3=
EXTT4=
EXTT5=
EXTT6=
EXTT7=
EXTT8=
EXTT9=
EXTT10=
EXTT11=
EXTT12=
EXTT13=
EXTT14=
EXTT15=
EXTT16=
EXTT17=
EXTT18=
EXTT19=
EXTT20=
PLAYORDER=
